<?xml version="1.0" standalone="no"?>
<!DOCTYPE svg PUBLIC "-//W3C//DTD SVG 20010904//EN"
 "http://www.w3.org/TR/2001/REC-SVG-20010904/DTD/svg10.dtd">
<svg version="1.0" xmlns="http://www.w3.org/2000/svg"
 width="550.000000pt" height="454.000000pt" viewBox="0 0 550.000000 454.000000"
 preserveAspectRatio="xMidYMid meet">

<g transform="translate(0.000000,454.000000) scale(0.100000,-0.100000)"
fill="#000000" stroke="none">
<path d="M2390 3889 c0 -8 -17 -10 -54 -5 -30 3 -69 3 -87 -1 -29 -5 -30 -7
-14 -15 14 -6 9 -7 -15 -3 -43 7 -146 -15 -128 -27 7 -4 -1 -5 -19 -2 -18 4
-33 2 -33 -3 0 -5 -14 -10 -31 -11 -18 -1 -39 -7 -48 -13 -13 -8 -11 -9 9 -4
22 5 23 4 7 -5 -10 -7 -25 -9 -34 -6 -21 8 -60 -4 -44 -13 7 -4 -3 -8 -20 -8
-18 0 -37 -7 -44 -17 -7 -9 -19 -14 -29 -10 -12 5 -15 2 -10 -9 4 -13 -1 -16
-23 -14 -15 1 -27 -3 -26 -8 1 -6 -6 -11 -16 -11 -25 0 -181 -96 -174 -107 3
-5 9 -3 14 4 7 11 9 10 9 -3 0 -14 -6 -16 -28 -12 -23 5 -33 0 -54 -25 -14
-16 -29 -27 -32 -24 -3 4 -6 1 -6 -5 0 -7 -7 -12 -15 -12 -8 0 -15 -5 -15 -11
0 -5 6 -7 13 -3 8 5 8 2 -2 -9 -15 -18 -26 -23 -16 -7 8 14 -8 13 -22 -1 -6
-6 -9 -18 -6 -27 4 -10 2 -13 -8 -10 -8 3 -24 -4 -36 -15 -20 -18 -21 -22 -9
-36 12 -13 12 -19 1 -34 -11 -16 -13 -16 -19 -2 -3 9 -2 13 3 10 5 -3 12 -1
16 5 3 6 -1 13 -11 17 -11 4 -27 -5 -50 -29 -28 -31 -31 -38 -19 -48 16 -13
10 -34 -6 -24 -5 3 -6 11 -2 17 4 7 -1 6 -10 -2 -14 -11 -15 -17 -5 -30 12
-14 11 -14 -4 -3 -15 12 -21 10 -42 -15 -25 -28 -27 -31 -30 -55 -1 -7 -8 -12
-16 -10 -11 3 -11 0 0 -13 7 -8 10 -18 6 -22 -3 -3 -6 -1 -6 6 0 7 -5 9 -11 6
-6 -4 -8 -13 -5 -21 3 -9 0 -11 -11 -7 -12 5 -14 1 -9 -14 5 -16 -1 -27 -23
-44 -26 -22 -82 -117 -60 -103 5 3 4 -6 -2 -20 -7 -14 -17 -23 -23 -19 -6 3
-8 3 -4 -2 4 -4 3 -13 -2 -20 -22 -27 -70 -159 -64 -178 3 -11 2 -17 -3 -14
-16 10 -57 -170 -56 -247 0 -54 -2 -63 -7 -36 -6 30 -8 26 -9 -26 0 -34 -4
-96 -8 -139 -4 -54 -3 -76 4 -72 7 5 12 -10 15 -41 2 -26 0 -48 -4 -50 -10 -5
-9 -70 3 -102 6 -18 7 -13 3 20 -4 37 -3 42 7 26 7 -11 9 -38 5 -70 -7 -60 2
-105 16 -84 7 9 8 3 4 -18 -6 -35 16 -119 28 -107 4 4 5 -4 1 -18 -4 -16 -2
-30 4 -33 6 -4 11 -18 11 -32 0 -13 5 -24 10 -24 6 0 10 -11 10 -25 0 -27 18
-33 39 -12 10 10 11 6 5 -17 -5 -21 -4 -27 5 -22 6 4 11 3 11 -3 0 -5 -8 -15
-18 -20 -9 -6 -12 -11 -5 -11 23 0 45 -32 39 -56 -5 -17 -1 -26 13 -34 16 -8
20 -6 23 8 3 14 5 13 10 -6 3 -12 2 -20 -3 -16 -5 3 -9 0 -9 -6 0 -6 -5 -8
-11 -4 -6 3 -3 -6 7 -22 23 -37 29 -43 22 -23 -4 9 -2 22 4 30 8 11 9 10 4 -4
-3 -10 6 -30 24 -51 17 -18 30 -37 30 -40 0 -4 -11 6 -25 21 -13 15 -25 23
-25 17 0 -6 7 -17 15 -24 8 -7 15 -16 15 -21 0 -10 61 -92 95 -129 13 -14 45
-49 71 -77 26 -29 54 -53 62 -53 8 0 13 -3 10 -6 -4 -3 10 -21 30 -39 25 -23
39 -30 44 -22 5 8 8 6 8 -5 0 -9 5 -20 12 -24 7 -4 8 -3 4 4 -5 8 -2 10 8 6 9
-3 13 -10 10 -15 -7 -13 38 -50 53 -44 7 2 12 0 10 -6 -1 -6 14 -20 33 -30 19
-11 44 -25 55 -32 11 -6 26 -10 34 -8 7 1 10 -2 7 -7 -7 -12 22 -24 36 -15 7
4 8 1 3 -7 -6 -10 -4 -12 9 -7 10 4 15 3 11 -3 -6 -10 27 -26 162 -79 45 -18
86 -30 92 -27 5 3 11 2 13 -3 6 -16 181 -49 238 -45 38 2 47 1 30 -5 -21 -7
-16 -9 32 -16 88 -11 362 -2 380 13 9 7 22 10 31 6 24 -9 172 27 156 37 -9 6
-10 9 -2 9 6 0 20 3 30 6 15 5 15 4 3 -5 -19 -14 -5 -14 43 0 36 10 49 32 25
42 -9 4 -10 6 -1 6 6 1 18 -6 27 -14 20 -21 24 -19 18 11 -4 21 -9 24 -26 19
-65 -20 -221 -45 -286 -47 l-75 -1 55 -7 c38 -5 11 -7 -85 -7 -101 0 -126 2
-90 8 39 6 31 7 -37 4 -54 -2 -88 1 -88 7 0 6 -17 8 -39 6 -22 -2 -38 -1 -35
3 5 9 -124 39 -141 33 -8 -4 -15 -1 -15 6 0 6 -5 8 -11 5 -5 -4 -18 -1 -27 7
-25 21 -124 60 -116 45 4 -7 -4 -2 -17 10 -13 12 -44 31 -69 42 -25 11 -58 29
-74 40 -17 11 -33 18 -38 15 -4 -3 -11 2 -14 10 -3 9 -10 14 -14 11 -4 -3 -11
2 -14 11 -3 8 -11 14 -18 13 -20 -3 -48 12 -48 26 0 6 -10 20 -22 31 -13 12
-18 13 -13 4 8 -13 6 -13 -8 -1 -9 7 -14 18 -10 24 4 6 -2 8 -15 5 -12 -4 -22
-2 -22 3 0 5 4 9 10 9 5 0 -14 21 -42 47 -28 27 -55 48 -60 48 -17 0 -57 46
-52 60 3 7 0 16 -7 21 -8 5 -10 3 -4 -6 6 -9 4 -11 -4 -6 -7 5 -10 14 -7 21 6
16 -37 58 -49 48 -4 -5 -5 0 -2 10 8 20 -25 71 -38 59 -3 -4 -6 -2 -5 3 5 21
0 36 -10 30 -5 -3 -7 0 -5 7 3 8 -2 22 -11 33 -8 11 -13 14 -9 8 4 -9 1 -11
-10 -7 -11 5 -13 10 -6 17 7 7 5 15 -7 24 -9 8 -11 12 -5 8 9 -4 11 -1 7 9 -3
9 -11 13 -17 9 -5 -3 -7 -2 -4 4 8 12 -22 93 -35 93 -4 0 -8 -5 -8 -12 0 -6
-3 -8 -6 -5 -4 4 -1 13 5 21 10 12 9 22 -2 48 -9 18 -21 51 -28 73 -7 22 -19
47 -26 56 -8 10 -11 29 -7 50 4 27 3 31 -6 19 -9 -12 -11 -10 -6 12 8 35 -5
133 -13 100 -3 -13 -6 71 -6 187 0 116 3 202 6 193 4 -10 9 6 13 38 4 30 10
64 12 75 5 17 3 18 -6 5 -10 -13 -11 -12 -6 3 3 10 6 23 6 28 0 6 4 8 9 5 11
-7 24 71 15 86 -4 7 -2 8 4 4 12 -7 28 37 23 63 -1 7 1 11 6 8 5 -3 13 10 19
28 6 19 7 32 2 29 -4 -3 -5 2 -2 10 3 9 11 13 17 9 6 -4 8 0 4 10 -3 10 -3 17
1 17 5 0 16 16 25 36 10 19 13 33 8 30 -5 -3 -7 3 -4 14 3 11 9 23 14 25 4 3
6 13 3 23 -5 13 -4 14 4 3 10 -15 32 -7 32 11 0 6 8 20 17 30 16 18 16 19 -3
12 -14 -4 -15 -3 -5 4 8 6 10 15 5 23 -6 12 -5 12 8 1 14 -11 19 -8 37 17 24
33 27 46 9 35 -8 -4 -10 -3 -5 2 5 5 13 9 19 9 6 0 12 9 14 19 3 24 59 78 69
68 5 -4 5 1 2 11 -4 10 -3 16 2 13 4 -3 36 23 69 58 34 35 64 62 67 60 3 -2 3
-1 0 3 -3 3 5 11 18 18 12 6 21 18 19 26 -2 8 0 11 3 7 11 -11 47 11 39 24 -4
6 -3 8 3 5 10 -6 66 26 63 38 -1 3 1 9 4 13 3 3 6 0 6 -6 0 -6 17 0 37 14 38
25 59 44 36 30 -7 -4 -13 -5 -13 -2 0 3 10 10 21 17 15 7 19 8 15 0 -5 -7 -1
-9 8 -5 9 3 13 11 9 17 -3 5 -1 7 4 4 6 -4 24 0 39 8 16 8 35 15 43 15 7 0 11
6 8 14 -4 10 1 13 21 11 14 -1 33 1 41 6 9 5 42 17 73 27 32 10 55 21 52 25
-3 3 4 8 16 12 12 4 24 4 27 1 4 -3 -2 -6 -12 -6 -10 0 -16 -2 -13 -5 7 -7
108 15 108 24 0 4 17 8 38 8 20 1 109 5 198 8 128 6 180 4 256 -9 53 -9 102
-15 110 -13 7 2 9 2 4 -1 -6 -3 14 -11 43 -19 29 -7 57 -11 62 -7 5 3 9 1 9
-3 0 -16 64 -32 110 -28 26 2 39 1 31 -4 -7 -5 -9 -11 -5 -13 11 -6 -9 0 -33
9 -10 3 -15 2 -11 -2 15 -16 141 -64 151 -58 6 3 7 1 3 -5 -4 -7 -4 -12 1 -13
39 -4 51 -7 68 -17 25 -14 11 -16 -16 -2 -38 21 -18 2 32 -28 27 -18 47 -27
44 -22 -3 6 -1 10 4 10 6 0 11 -6 11 -14 0 -8 5 -18 12 -22 6 -4 8 -3 5 2 -3
5 3 10 13 10 14 0 16 -3 8 -13 -8 -11 -7 -12 7 -7 12 5 16 3 13 -6 -7 -21 44
-61 60 -47 9 7 12 7 10 0 -5 -17 62 -94 75 -87 7 4 9 4 5 -1 -11 -11 12 -36
25 -28 5 3 7 1 4 -4 -4 -6 3 -19 15 -29 12 -11 19 -14 15 -9 -3 6 4 12 16 12
16 2 18 0 8 -6 -17 -11 -7 -41 14 -41 8 0 15 -5 15 -11 0 -5 -4 -7 -10 -4 -16
10 -11 -1 7 -16 11 -10 14 -10 9 -1 -4 7 -2 12 5 12 7 0 9 -8 6 -21 -5 -17 -3
-18 10 -8 19 16 41 20 48 9 3 -5 -4 -7 -15 -5 -38 7 -33 -23 14 -95 26 -39 49
-77 53 -85 3 -8 10 -12 16 -8 6 3 7 1 3 -6 -4 -6 -1 -23 8 -36 9 -13 16 -31
16 -40 0 -8 4 -15 9 -15 5 0 12 -11 15 -25 4 -16 11 -23 18 -19 6 4 8 3 5 -3
-10 -16 4 -74 16 -66 5 3 7 0 5 -8 -3 -8 -1 -25 5 -39 13 -36 47 -172 47 -193
0 -10 4 -16 9 -13 5 3 12 -1 15 -10 9 -22 8 -26 -6 -18 -8 5 -9 0 -4 -17 4
-13 7 -75 6 -136 l-2 -113 26 0 26 0 0 104 c0 56 -3 132 -7 167 -6 56 -8 60
-15 34 -5 -19 -5 -11 -2 24 5 55 -13 161 -27 161 -5 0 -6 14 -2 30 3 19 1 30
-5 30 -7 0 -9 7 -5 17 5 12 3 14 -7 8 -9 -5 -11 -4 -6 4 11 18 -2 63 -16 55
-7 -5 -8 -3 -3 6 11 18 -16 92 -32 86 -7 -3 -12 -2 -11 2 1 4 -6 22 -15 40
-10 17 -15 32 -12 32 3 0 14 -15 25 -32 31 -52 23 -25 -19 66 -22 46 -47 86
-56 90 -9 3 -15 12 -12 19 6 17 -12 49 -23 42 -6 -4 -7 1 -3 11 5 13 3 15 -7
9 -8 -5 -11 -4 -7 2 7 11 -31 78 -40 69 -8 -8 -43 24 -43 38 0 6 7 2 15 -8 8
-11 17 -17 19 -15 6 5 -35 56 -121 150 -35 38 -63 65 -63 60 0 -4 -7 -8 -15
-8 -10 0 -12 4 -5 12 7 9 -2 24 -32 52 -62 56 -107 88 -126 88 -10 0 -16 6
-14 15 2 8 0 12 -4 8 -4 -4 -13 0 -20 10 -11 14 -13 15 -14 1 0 -8 5 -20 10
-25 7 -7 5 -10 -7 -9 -20 1 -64 24 -48 25 6 0 16 -5 23 -12 9 -9 12 -6 12 14
0 25 -22 43 -48 39 -7 -1 -11 4 -10 11 2 8 -5 12 -19 10 -12 -2 -25 3 -29 9
-5 9 -2 10 9 6 24 -9 21 0 -4 14 -17 9 -25 7 -47 -13 -21 -18 -23 -19 -9 -2
24 28 23 31 -24 54 -32 17 -44 19 -55 9 -12 -10 -13 -9 -8 6 5 13 4 16 -4 11
-7 -4 -12 -3 -12 1 0 13 -58 32 -80 26 -14 -4 -20 -1 -18 8 2 7 -6 14 -17 16
-17 4 -18 2 -5 -7 13 -10 12 -11 -3 -6 -10 3 -21 6 -23 6 -3 0 -3 4 0 9 8 13
-88 34 -116 26 -16 -4 -19 -3 -10 3 11 7 8 11 -10 15 -12 4 -32 6 -43 6 -16
-1 -16 -2 5 -9 42 -14 -1 -10 -65 5 -41 10 -47 13 -20 10 28 -3 35 -2 25 5 -8
5 -82 8 -170 6 -111 -3 -130 -2 -65 3 l90 7 -97 2 c-68 1 -98 -2 -98 -9z m-93
-15 c-3 -3 -12 -4 -19 -1 -8 3 -5 6 6 6 11 1 17 -2 13 -5z m-102 -24 c8 -13
-5 -13 -25 0 -13 8 -13 10 2 10 9 0 20 -4 23 -10z m876 -78 c-7 -2 -18 1 -23
6 -8 8 -4 9 13 5 13 -4 18 -8 10 -11z m130 -58 c13 -16 12 -16 -7 -6 -11 6
-27 19 -35 28 -13 16 -12 16 7 6 11 -6 27 -19 35 -28z m-346 -44 c3 -5 1 -10
-4 -10 -6 0 -11 5 -11 10 0 6 2 10 4 10 3 0 8 -4 11 -10z m-1182 -13 c3 -7 -3
-13 -14 -13 -13 0 -15 3 -7 13 6 7 12 13 13 13 2 0 5 -6 8 -13z m754 -3 c-3
-3 -12 -4 -19 -1 -8 3 -5 6 6 6 11 1 17 -2 13 -5z m366 -1 c-7 -2 -19 -2 -25
0 -7 3 -2 5 12 5 14 0 19 -2 13 -5z m54 -9 c-3 -3 -12 -4 -19 -1 -8 3 -5 6 6
6 11 1 17 -2 13 -5z m-1226 -22 c-11 -4 -11 -6 0 -13 10 -6 7 -8 -8 -6 -21 1
-21 2 -6 19 9 10 19 15 22 12 3 -4 0 -9 -8 -12z m656 2 c-3 -3 -12 -4 -19 -1
-8 3 -5 6 6 6 11 1 17 -2 13 -5z m1043 -4 c0 -5 -5 -10 -11 -10 -5 0 -7 5 -4
10 3 6 8 10 11 10 2 0 4 -4 4 -10z m-1640 -26 c0 -2 -9 0 -20 6 -11 6 -20 13
-20 16 0 2 9 0 20 -6 11 -6 20 -13 20 -16z m1324 17 c4 -5 -3 -7 -14 -4 -23 6
-26 13 -6 13 8 0 17 -4 20 -9z m-1357 -27 c-3 -3 -12 -4 -19 -1 -8 3 -5 6 6 6
11 1 17 -2 13 -5z m1809 -30 c1 -9 0 -13 -4 -10 -3 4 -7 14 -8 22 -1 9 0 13 4
10 3 -4 7 -14 8 -22z m-1401 -2 c-3 -3 -11 0 -18 7 -9 10 -8 11 6 5 10 -3 15
-9 12 -12z m1435 -6 c0 -2 -8 -10 -17 -17 -16 -13 -17 -12 -4 4 13 16 21 21
21 13z m34 -34 c3 -5 -1 -9 -9 -9 -8 0 -12 4 -9 9 3 4 7 8 9 8 2 0 6 -4 9 -8z
m-1679 -32 c-3 -5 -12 -10 -18 -10 -7 0 -6 4 3 10 19 12 23 12 15 0z m-40 -10
c3 -6 -1 -7 -9 -4 -18 7 -21 14 -7 14 6 0 13 -4 16 -10z m-437 -40 c-7 -10
-14 -17 -17 -15 -4 4 18 35 25 35 2 0 -1 -9 -8 -20z m417 10 c-3 -5 -11 -10
-16 -10 -6 0 -7 5 -4 10 3 6 11 10 16 10 6 0 7 -4 4 -10z m-60 -43 c-11 -6
-21 -5 -28 3 -9 8 -7 9 7 4 13 -5 17 -4 12 4 -5 8 -2 10 10 5 15 -6 15 -7 -1
-16z m1902 8 c0 -8 -4 -12 -9 -9 -5 3 -6 10 -3 15 9 13 12 11 12 -6z m-2326
-38 c-6 -8 -7 -18 -3 -22 4 -5 1 -5 -6 -1 -10 6 -10 11 -1 22 6 8 14 14 16 14
3 0 0 -6 -6 -13z m2375 1 c4 -7 4 -10 -1 -6 -4 4 -15 2 -24 -5 -14 -11 -14
-10 -2 6 16 20 18 21 27 5z m-46 -3 c0 -2 -6 -8 -13 -14 -10 -8 -14 -7 -14 2
0 8 6 14 14 14 7 0 13 -1 13 -2z m-105 -25 c10 -11 16 -20 13 -20 -3 0 -13 9
-23 20 -10 11 -16 20 -13 20 3 0 13 -9 23 -20z m-1895 -26 c0 -8 -19 -13 -24
-6 -3 5 1 9 9 9 8 0 15 -2 15 -3z m2077 -39 c0 -8 -4 -12 -9 -9 -5 3 -6 10 -3
15 9 13 12 11 12 -6z m-2154 -29 c3 -8 0 -17 -8 -20 -10 -3 -12 0 -8 11 5 12
3 14 -7 8 -9 -5 -11 -4 -6 3 10 16 23 15 29 -2z m-71 -78 c-14 -14 -44 -20
-36 -7 3 5 9 7 14 4 5 -3 11 -1 15 5 3 5 9 10 13 10 3 0 1 -5 -6 -12z m-371
-115 c13 -16 12 -17 -3 -4 -10 7 -18 15 -18 17 0 8 8 3 21 -13z m2749 -8 c14
-19 14 -19 -2 -6 -10 7 -18 18 -18 24 0 6 1 8 3 6 1 -2 9 -13 17 -24z m-11
-41 c-6 -8 -14 -14 -16 -14 -3 0 1 8 8 17 12 15 12 16 -6 9 -11 -4 -16 -4 -12
0 4 4 1 14 -6 22 -8 11 -4 10 16 -3 21 -14 25 -20 16 -31z m58 31 c0 -8 -4
-12 -9 -9 -5 3 -6 10 -3 15 9 13 12 11 12 -6z m-2615 -37 c-7 -7 -12 -8 -12
-2 0 14 12 26 19 19 2 -3 -1 -11 -7 -17z m2592 -14 c3 -8 2 -12 -4 -9 -6 3
-10 10 -10 16 0 14 7 11 14 -7z m-18 -19 c9 -8 11 -15 6 -15 -5 0 -15 7 -22
15 -7 8 -9 15 -6 15 4 0 14 -7 22 -15z m47 -40 c-3 -9 -8 -14 -10 -11 -3 3 -2
9 2 15 9 16 15 13 8 -4z m-2926 -77 c-3 -8 -6 -5 -6 6 -1 11 2 17 5 13 3 -3 4
-12 1 -19z m286 -23 c-3 -9 -8 -14 -10 -11 -3 3 -2 9 2 15 9 16 15 13 8 -4z
m-376 -267 c-3 -8 -6 -5 -6 6 -1 11 2 17 5 13 3 -3 4 -12 1 -19z m250 -140
c-3 -8 -6 -5 -6 6 -1 11 2 17 5 13 3 -3 4 -12 1 -19z m2950 -100 c-2 -13 -4
-3 -4 22 0 25 2 35 4 23 2 -13 2 -33 0 -45z m-2970 -110 c-2 -24 -4 -5 -4 42
0 47 2 66 4 43 2 -24 2 -62 0 -85z m2950 -20 c-2 -24 -4 -7 -4 37 0 44 2 63 4
43 2 -21 2 -57 0 -80z m20 -20 c-2 -13 -4 -5 -4 17 -1 22 1 32 4 23 2 -10 2
-28 0 -40z m-2970 -115 c-2 -16 -4 -3 -4 27 0 30 2 43 4 28 2 -16 2 -40 0 -55z
m20 -125 c-3 -8 -6 -5 -6 6 -1 11 2 17 5 13 3 -3 4 -12 1 -19z m-217 -68 c0
-5 -4 -10 -10 -10 -5 0 -10 5 -10 10 0 6 5 10 10 10 6 0 10 -4 10 -10z m10
-40 c0 -5 -2 -10 -4 -10 -3 0 -8 5 -11 10 -3 6 -1 10 4 10 6 0 11 -4 11 -10z
m318 -265 c-3 -3 -9 2 -12 12 -6 14 -5 15 5 6 7 -7 10 -15 7 -18z m-64 -227
c-9 -14 -23 2 -17 18 4 12 8 13 14 3 4 -7 5 -17 3 -21z m196 21 c0 -4 -9 -7
-19 -6 -11 0 -18 4 -16 7 6 9 35 8 35 -1z m-10 -23 c0 -3 -4 -8 -10 -11 -5 -3
-10 -1 -10 4 0 6 5 11 10 11 6 0 10 -2 10 -4z m46 -33 c-7 -7 -26 7 -26 19 0
6 6 6 15 -2 9 -7 13 -15 11 -17z m-227 -17 c-3 -3 -11 5 -18 17 -13 21 -12 21
5 5 10 -10 16 -20 13 -22z m35 -37 c-3 -5 -10 -7 -15 -3 -5 3 -7 10 -3 15 3 5
10 7 15 3 5 -3 7 -10 3 -15z m213 -71 c-3 -8 -6 -5 -6 6 -1 11 2 17 5 13 3 -3
4 -12 1 -19z m118 -34 c15 -14 25 -27 23 -29 -3 -3 -17 9 -33 25 -35 37 -28
40 10 4z m-234 -11 c13 -16 12 -17 -3 -4 -17 13 -22 21 -14 21 2 0 10 -8 17
-17z m220 -10 c13 -16 12 -17 -3 -4 -17 13 -22 21 -14 21 2 0 10 -8 17 -17z
m-124 -50 c-14 -14 -19 -15 -29 -4 -11 10 -10 11 3 6 10 -4 20 -2 24 4 3 6 9
11 13 11 3 0 -1 -8 -11 -17z m200 -28 c0 -8 -4 -12 -9 -9 -5 3 -6 10 -3 15 9
13 12 11 12 -6z m-23 -122 c4 -11 1 -11 -14 -3 -24 13 -25 17 -5 17 8 0 16 -6
19 -14z m276 -16 c0 -2 -8 -3 -18 -3 -10 0 -19 6 -19 13 0 8 6 9 19 2 10 -5
18 -11 18 -12z m-219 -24 c13 -16 12 -17 -3 -4 -17 13 -22 21 -14 21 2 0 10
-8 17 -17z m136 -59 c-3 -3 -12 -4 -19 -1 -8 3 -5 6 6 6 11 1 17 -2 13 -5z
m294 -21 c12 -16 12 -17 -1 -7 -8 7 -24 14 -35 17 -19 4 -19 5 1 6 12 0 28 -7
35 -16z m-166 -23 c-3 -5 -12 -10 -18 -10 -7 0 -6 4 3 10 19 12 23 12 15 0z
m282 -6 c-3 -3 -12 -4 -19 -1 -8 3 -5 6 6 6 11 1 17 -2 13 -5z m-10 -20 c-3
-3 -12 -4 -19 -1 -8 3 -5 6 6 6 11 1 17 -2 13 -5z m86 -1 c-7 -2 -19 -2 -25 0
-7 3 -2 5 12 5 14 0 19 -2 13 -5z m-303 -13 c0 -5 -7 -7 -15 -4 -8 4 -15 8
-15 10 0 2 7 4 15 4 8 0 15 -4 15 -10z m115 -28 c-7 -7 -55 8 -55 17 0 5 13 4
30 -2 16 -6 27 -13 25 -15z m122 -28 c-3 -3 -12 -4 -19 -1 -8 3 -5 6 6 6 11 1
17 -2 13 -5z m146 -21 c-7 -2 -21 -2 -30 0 -10 3 -4 5 12 5 17 0 24 -2 18 -5z
m150 0 c-13 -2 -35 -2 -50 0 -16 2 -5 4 22 4 28 0 40 -2 28 -4z m120 0 c-7 -2
-19 -2 -25 0 -7 3 -2 5 12 5 14 0 19 -2 13 -5z"/>
<path d="M2434 3469 c-3 -6 -18 -8 -32 -5 -15 4 -40 2 -57 -4 -29 -10 -29 -10
6 -5 20 3 47 2 59 -3 l24 -9 -22 -5 c-12 -4 -20 -3 -18 0 2 4 -26 7 -62 6 -70
0 -147 -17 -157 -34 -3 -6 -19 -10 -36 -10 -20 0 -29 -5 -29 -16 0 -8 -5 -12
-10 -9 -6 3 -20 3 -31 0 -17 -6 -19 -9 -8 -17 10 -7 8 -8 -7 -4 -23 7 -137
-50 -129 -65 4 -5 -2 -6 -11 -2 -12 4 -15 3 -10 -5 4 -7 2 -10 -6 -7 -8 3 -25
-6 -38 -20 -13 -14 -18 -25 -12 -25 6 0 16 8 21 18 9 14 10 15 11 1 0 -9 -11
-21 -25 -27 -14 -6 -24 -8 -22 -3 4 16 -17 9 -45 -14 -15 -13 -24 -26 -21 -29
4 -3 -1 -6 -10 -6 -19 0 -22 -10 -7 -28 7 -9 7 -9 -2 -2 -19 16 -38 12 -38 -9
0 -13 -8 -21 -22 -23 -23 -4 -25 -7 -13 -43 6 -19 6 -19 -5 -2 -11 17 -13 18
-31 1 -18 -17 -17 -34 3 -34 5 0 8 7 5 15 -4 8 -1 17 6 21 7 4 9 4 5 -1 -4 -4
-4 -13 2 -19 6 -8 2 -16 -11 -24 -11 -7 -19 -8 -19 -2 0 5 -6 9 -12 7 -31 -6
-124 -139 -112 -158 4 -7 3 -9 -4 -5 -6 3 -17 -4 -24 -16 -13 -22 -14 -29 -17
-56 0 -7 -5 -11 -10 -8 -12 8 -22 -20 -14 -41 4 -11 3 -14 -5 -9 -12 7 -47
-62 -37 -72 3 -3 5 1 5 8 0 7 3 11 6 7 3 -3 -7 -30 -24 -59 -40 -71 -64 -168
-56 -228 4 -29 2 -55 -5 -66 -9 -15 -10 -10 -6 26 3 37 3 39 -4 15 -10 -36
-14 -289 -5 -335 5 -23 9 -28 16 -18 6 8 7 -3 4 -32 -6 -48 16 -146 27 -120 3
8 4 3 1 -12 -4 -16 -2 -28 4 -28 6 0 8 -10 5 -22 -4 -19 -3 -20 7 -8 9 12 10
8 5 -17 -4 -18 -2 -34 4 -38 7 -4 9 1 5 12 -5 15 -4 15 4 3 6 -8 8 -18 6 -22
-9 -14 28 -98 39 -91 6 3 7 1 3 -5 -8 -13 30 -92 44 -92 6 0 9 -6 8 -12 -2 -7
3 -12 10 -10 11 2 17 -18 13 -41 -1 -5 3 -6 8 -3 12 8 41 -32 35 -49 -3 -7 13
-31 35 -54 23 -24 48 -52 56 -64 8 -11 18 -18 21 -14 4 4 -4 16 -17 28 l-24
21 25 -15 c14 -8 24 -22 24 -30 -1 -9 10 -26 24 -39 14 -13 22 -18 19 -11 -8
13 18 12 30 -2 4 -4 3 -5 -3 -2 -7 4 -14 1 -17 -7 -6 -15 19 -30 34 -21 5 4 6
-2 2 -11 -5 -13 -3 -16 9 -11 10 3 23 -3 35 -16 l18 -22 -22 19 c-13 11 -23
16 -23 13 0 -10 81 -67 94 -67 6 0 4 5 -4 10 -8 5 -10 10 -4 10 6 0 18 -8 25
-17 10 -11 10 -14 2 -9 -7 4 -13 3 -13 -2 0 -10 70 -48 83 -44 4 1 7 -2 7 -6
0 -14 48 -32 67 -25 13 5 15 3 10 -11 -5 -14 -3 -17 8 -12 8 3 15 1 15 -5 0
-6 5 -7 10 -4 6 3 10 2 10 -3 0 -14 96 -43 116 -35 12 4 15 3 10 -5 -7 -12 22
-23 68 -26 13 0 22 -4 20 -7 -4 -7 123 -26 236 -35 78 -7 290 15 385 40 l50
13 1 189 c1 104 -1 193 -4 199 -3 5 -7 20 -8 33 -2 18 0 21 10 13 11 -9 15 -4
20 21 5 25 2 36 -11 46 -16 11 -19 10 -24 -10 -6 -22 -6 -22 -14 5 -11 39 2
133 22 163 14 22 14 27 2 35 -11 7 -9 9 7 9 11 0 29 9 39 20 10 11 26 22 36
25 11 4 17 10 14 15 -3 4 13 6 34 3 32 -4 41 -2 50 15 6 11 9 27 6 34 -3 8 6
31 19 51 14 20 21 37 15 37 -6 0 -7 5 -4 10 4 6 11 8 16 5 5 -4 9 -1 9 4 0 6
-5 11 -11 11 -5 0 -7 5 -4 10 4 6 10 8 15 5 4 -3 15 6 24 20 18 27 21 39 7 31
-5 -4 -7 3 -4 14 5 20 23 28 23 10 0 -6 16 8 37 31 20 22 56 52 80 66 43 25
54 35 31 29 -7 -1 -10 -1 -5 1 4 3 5 8 3 12 -3 4 4 7 14 7 10 0 16 -4 14 -8
-7 -11 10 -10 22 1 22 20 114 31 270 31 l167 0 -6 115 c-7 122 -25 235 -39
235 -5 0 -6 11 -2 24 4 16 1 25 -10 29 -9 4 -16 12 -16 19 0 9 3 8 10 -2 13
-20 12 -10 -1 29 -6 17 -15 31 -21 31 -5 0 -6 5 -2 11 6 11 -37 124 -65 168
-14 22 -15 22 -28 5 -7 -10 -13 -13 -13 -8 0 6 5 15 11 21 14 14 -7 57 -26 49
-7 -2 -23 7 -36 20 -22 23 -24 24 -36 8 -7 -10 -13 -13 -13 -7 0 7 5 15 11 18
6 4 8 13 5 20 -3 8 2 19 10 26 11 9 11 15 3 25 -6 8 -16 11 -22 7 -6 -3 -7 -1
-3 5 6 10 -20 45 -86 116 -16 16 -28 26 -28 22 0 -4 -9 -2 -21 4 -11 7 -18 14
-15 18 7 6 -33 52 -46 52 -5 0 -6 -4 -3 -10 3 -6 -1 -7 -10 -3 -12 4 -13 8 -5
13 9 5 9 9 1 14 -6 4 -15 5 -20 1 -5 -3 -13 0 -17 6 -5 8 -3 9 7 4 8 -5 5 1
-5 13 -11 12 -21 20 -24 18 -2 -3 -14 4 -25 15 -12 11 -27 17 -34 15 -7 -3
-12 0 -10 6 1 6 -3 12 -10 15 -8 3 -11 -3 -8 -17 2 -11 0 -18 -6 -15 -5 4 -7
9 -5 13 8 14 -20 40 -72 66 -40 20 -57 24 -67 16 -10 -8 -13 -7 -11 6 0 9 -6
19 -14 21 -13 4 -13 3 0 -6 8 -6 11 -11 6 -11 -5 0 -17 6 -25 14 -24 21 -111
47 -135 41 -17 -5 -18 -4 -6 4 12 9 10 11 -10 11 -14 0 -35 1 -48 1 -14 0 -20
4 -16 11 5 8 -5 9 -34 5 -22 -4 -43 -3 -46 2 -8 12 -314 12 -322 0z m-189 -49
c-3 -5 -14 -10 -23 -9 -14 0 -13 2 3 9 27 11 27 11 20 0z m-82 -55 c0 -6 -7
-11 -16 -11 -16 -2 -16 -1 -1 3 14 4 15 7 3 15 -11 7 -11 9 -1 6 8 -2 14 -8
15 -13z m996 -21 c14 -12 -19 -1 -35 12 -18 14 -18 14 6 3 14 -6 27 -13 29
-15z m-1187 -36 c-8 -8 -9 -15 0 -25 8 -11 7 -12 -6 -7 -9 3 -16 9 -16 13 0 8
22 31 29 31 3 0 0 -5 -7 -12z m-57 -117 c-3 -6 -11 -11 -16 -11 -5 0 -4 6 3
14 14 16 24 13 13 -3z m-177 -72 c9 -12 9 -16 -1 -16 -7 0 -14 9 -14 20 -1 11
-1 18 0 16 2 -2 8 -11 15 -20z m-38 -29 c0 -5 -4 -10 -9 -10 -6 0 -13 5 -16
10 -3 6 1 10 9 10 9 0 16 -4 16 -10z m1850 -45 c0 -12 -19 -12 -23 0 -4 9 -1
12 9 8 7 -3 14 -7 14 -8z m-1954 -67 c4 -7 4 -10 -1 -6 -4 4 -15 2 -24 -5 -14
-11 -14 -10 -2 6 16 20 18 21 27 5z m832 -26 c231 2 418 0 415 -4 -2 -5 9 -8
25 -8 41 0 129 -29 175 -57 21 -13 43 -21 49 -17 6 4 8 3 5 -3 -4 -6 9 -25 28
-42 19 -17 35 -35 35 -41 0 -5 5 -10 11 -10 5 0 7 5 4 10 -3 6 -2 10 4 10 6 0
8 -13 5 -32 -4 -25 -3 -29 5 -18 8 12 11 8 11 -17 0 -17 5 -35 12 -39 7 -5 8
-2 3 7 -5 8 -4 11 1 6 5 -5 10 -23 11 -40 1 -18 6 -84 11 -147 5 -71 5 -120
-1 -128 -6 -7 -11 -37 -12 -68 -2 -30 -6 -58 -10 -62 -4 -4 -4 4 0 17 5 16 4
21 -4 17 -6 -4 -11 -15 -11 -25 0 -9 -6 -23 -12 -30 -11 -10 -10 -11 5 -5 13
5 16 2 11 -10 -3 -9 -10 -14 -14 -11 -12 8 -41 -25 -34 -37 4 -6 2 -8 -4 -5
-5 4 -29 -14 -52 -40 -22 -26 -46 -48 -53 -49 -21 -4 -97 -41 -93 -45 2 -2 -8
-5 -22 -5 -15 -1 -56 -7 -92 -14 -36 -7 -131 -13 -212 -14 -82 0 -148 -5 -148
-9 0 -4 -9 -3 -20 3 -20 11 -20 7 -22 -242 l-2 -253 -6 250 -6 250 -2 -282 -2
-283 -235 0 -235 0 0 760 0 760 21 0 c16 0 20 4 15 18 -6 16 -5 16 8 -1 13
-17 40 -18 434 -15z m-351 12 c-3 -3 -12 -4 -19 -1 -8 3 -5 6 6 6 11 1 17 -2
13 -5z m481 -1 c-87 -2 -229 -2 -315 0 -87 1 -16 3 157 3 173 0 244 -2 158 -3z
m-1014 -47 c-3 -9 -10 -16 -15 -16 -5 0 -4 9 3 20 14 22 21 20 12 -4z m-4 -48
c0 -6 -6 -5 -15 2 -8 7 -15 14 -15 16 0 2 7 1 15 -2 8 -4 15 -11 15 -16z
m2081 -1 c-10 -9 -11 -8 -5 6 3 10 9 15 12 12 3 -3 0 -11 -7 -18z m-430 -24
c10 -11 10 -14 2 -9 -12 7 -18 -5 -14 -27 1 -5 -3 -6 -9 -2 -7 4 -7 12 0 25 7
13 6 20 -3 23 -7 4 -8 6 -1 6 6 1 18 -7 25 -16z m-1675 -11 c0 -10 -6 -19 -13
-19 -17 0 -17 24 0 30 6 3 12 6 12 6 1 1 1 -7 1 -17z m1629 6 c5 4 5 1 1 -6
-6 -10 -11 -10 -22 -1 -8 6 -14 14 -14 16 0 3 6 0 13 -6 8 -6 18 -7 22 -3z
m649 -183 c3 -8 1 -15 -4 -15 -6 0 -10 7 -10 15 0 8 2 15 4 15 2 0 6 -7 10
-15z m-2457 -237 c-3 -8 -6 -5 -6 6 -1 11 2 17 5 13 3 -3 4 -12 1 -19z m-20
-180 c-3 -8 -6 -5 -6 6 -1 11 2 17 5 13 3 -3 4 -12 1 -19z m1920 0 c-3 -8 -6
-5 -6 6 -1 11 2 17 5 13 3 -3 4 -12 1 -19z m-121 -133 c-3 -23 -12 -26 -13 -5
-1 11 2 20 7 20 4 0 7 -7 6 -15z m-1799 -52 c-3 -10 -5 -4 -5 12 0 17 2 24 5
18 2 -7 2 -21 0 -30z m2003 -17 c0 -3 -4 -8 -10 -11 -5 -3 -10 -1 -10 4 0 6 5
11 10 11 6 0 10 -2 10 -4z m-457 -43 c-7 -2 -19 -2 -25 0 -7 3 -2 5 12 5 14 0
19 -2 13 -5z m-75 -10 c-16 -2 -40 -2 -55 0 -16 2 -3 4 27 4 30 0 43 -2 28 -4z
m-1445 -43 c3 -11 1 -18 -4 -14 -5 3 -9 12 -9 20 0 20 7 17 13 -6z m1800 -201
c-8 -8 -13 -7 -18 2 -5 8 -4 10 3 5 7 -4 12 -2 12 5 0 7 3 9 7 6 4 -4 2 -12
-4 -18z m-136 -65 c-2 -3 -13 -6 -24 -8 -13 -3 -19 2 -19 16 0 17 2 17 12 4
13 -19 25 -11 18 12 -4 13 -3 13 6 -1 7 -10 10 -21 7 -23z m-1517 -24 c0 -5
-4 -10 -10 -10 -5 0 -10 5 -10 10 0 6 5 10 10 10 6 0 10 -4 10 -10z m25 -82
c5 4 5 1 1 -6 -6 -10 -11 -10 -22 -1 -8 6 -14 14 -14 16 0 3 6 0 13 -6 8 -6
18 -7 22 -3z m82 -82 c4 -5 3 -6 -3 -3 -7 4 -15 0 -18 -8 -5 -13 -9 -13 -26
-3 -11 7 -20 16 -20 19 0 9 57 5 67 -5z m846 -16 c-3 -11 -7 -20 -9 -20 -2 0
-4 9 -4 20 0 11 4 20 9 20 5 0 7 -9 4 -20z m84 -12 c-3 -8 -6 -5 -6 6 -1 11 2
17 5 13 3 -3 4 -12 1 -19z m-906 -78 c10 0 19 -4 19 -9 0 -5 -10 -7 -22 -4
-24 6 -48 29 -48 47 0 6 7 0 16 -12 8 -12 24 -22 35 -22z m682 33 c-62 -2
-165 -2 -230 0 -65 1 -14 3 112 3 127 0 180 -2 118 -3z m-470 -208 c-3 -9 -8
-14 -10 -11 -3 3 -2 9 2 15 9 16 15 13 8 -4z m166 -124 c7 -5 9 -11 5 -14 -5
-3 -15 1 -22 9 -14 16 -5 18 17 5z m908 -137 c-3 -3 -12 -4 -19 -1 -8 3 -5 6
6 6 11 1 17 -2 13 -5z m-394 -31 c-13 -2 -33 -2 -45 0 -13 2 -3 4 22 4 25 0
35 -2 23 -4z m230 0 c-7 -2 -19 -2 -25 0 -7 3 -2 5 12 5 14 0 19 -2 13 -5z
m-110 -10 c-7 -2 -19 -2 -25 0 -7 3 -2 5 12 5 14 0 19 -2 13 -5z"/>
<path d="M2420 2477 l0 -177 81 0 c50 0 78 4 74 10 -4 6 11 8 40 6 47 -5 120
16 94 27 -9 3 -7 6 6 6 22 1 55 33 55 54 0 8 -4 7 -10 -3 -8 -12 -10 -11 -10
7 0 15 5 21 14 17 9 -4 16 4 21 24 7 33 -2 82 -16 82 -5 0 -6 6 -3 14 8 21
-41 71 -83 84 -21 6 -82 13 -136 14 -91 3 -98 2 -103 -17 -2 -11 -5 -85 -7
-165 l-3 -145 -1 163 c-1 90 -4 166 -7 169 -3 4 -6 -73 -6 -170z m335 83 c3
-6 -1 -7 -9 -4 -18 7 -21 14 -7 14 6 0 13 -4 16 -10z m-255 -24 c0 -3 -4 -8
-10 -11 -5 -3 -10 -1 -10 4 0 6 5 11 10 11 6 0 10 -2 10 -4z m-30 -117 c0 -55
-3 -98 -7 -96 -8 5 -5 197 3 197 2 0 4 -45 4 -101z m201 -67 c-7 -2 -18 1 -23
6 -8 8 -4 9 13 5 13 -4 18 -8 10 -11z"/>
<path d="M1555 1480 c3 -5 8 -10 11 -10 2 0 4 5 4 10 0 6 -5 10 -11 10 -5 0
-7 -4 -4 -10z"/>
<path d="M1090 3108 c-12 -22 -12 -22 6 -6 10 10 15 20 12 24 -4 3 -12 -5 -18
-18z"/>
<path d="M3632 2941 c-10 -6 -7 -15 13 -40 15 -17 31 -29 36 -25 13 8 11 16
-14 46 -14 18 -27 24 -35 19z m46 -56 c-3 -3 -9 2 -12 12 -6 14 -5 15 5 6 7
-7 10 -15 7 -18z"/>
<path d="M1306 2883 c-6 -14 -5 -15 5 -6 7 7 10 15 7 18 -3 3 -9 -2 -12 -12z"/>
<path d="M3504 2012 c-23 -23 -70 -50 -60 -33 4 6 3 11 -3 11 -14 0 -121 -106
-121 -120 0 -6 4 -9 9 -6 10 6 25 -24 16 -32 -3 -3 -5 0 -5 6 0 7 -7 12 -16
12 -8 0 -13 -4 -9 -9 3 -5 1 -12 -5 -16 -15 -9 -43 -73 -36 -83 3 -6 -1 -12
-9 -16 -8 -3 -15 -11 -15 -18 0 -9 3 -8 10 2 5 8 10 12 10 9 0 -4 -16 -33 -35
-65 -28 -46 -41 -59 -60 -59 -14 -1 -25 3 -25 7 0 14 -44 9 -68 -8 -26 -18
-28 -36 -7 -54 8 -7 15 -17 15 -23 0 -6 -7 -2 -15 9 -12 16 -14 16 -15 3 0 -9
7 -22 16 -30 13 -10 17 -10 25 2 5 8 9 9 9 4 0 -6 12 -18 26 -26 l26 -16 -27
-7 c-21 -5 -26 -12 -22 -26 3 -11 1 -20 -5 -20 -6 0 -7 -7 -4 -16 3 -8 2 -12
-4 -9 -6 4 -10 -5 -10 -20 0 -18 4 -24 13 -20 6 4 4 0 -5 -8 -16 -12 -18 -34
-18 -176 0 -121 4 -171 15 -198 8 -19 16 -68 17 -107 l2 -71 6 70 6 70 2 -71
c1 -49 7 -75 17 -84 8 -6 13 -17 12 -23 -1 -8 27 -13 89 -15 79 -2 94 0 117
18 25 20 27 27 27 91 0 47 4 71 13 74 6 3 215 6 463 7 l451 3 2 -75 c2 -72 14
-106 32 -94 5 3 8 0 7 -8 -2 -10 13 -13 62 -13 46 0 64 4 63 12 -2 7 4 10 13
6 13 -5 13 -7 2 -14 -9 -6 -2 -9 19 -9 23 0 38 8 53 27 18 24 21 38 18 100 -2
51 1 74 9 78 7 2 10 12 6 21 -3 10 -2 15 3 12 5 -4 8 67 7 175 -1 161 -5 201
-20 230 -2 4 1 7 6 7 6 0 12 -10 12 -22 1 -17 3 -18 6 -6 2 9 -1 27 -8 40 -7
13 -12 28 -11 35 1 6 -2 14 -8 18 -19 12 -10 35 18 48 50 22 57 60 18 96 -25
23 -45 24 -101 6 -17 -5 -24 1 -39 39 -11 25 -23 46 -28 46 -5 0 -7 4 -4 9 3
5 -2 29 -12 53 l-19 43 -21 -40 c-12 -22 -21 -35 -21 -30 0 6 6 21 13 34 8 14
11 32 8 40 -4 9 -1 12 7 7 9 -6 8 1 -2 26 -21 50 -57 105 -57 88 0 -13 -2 -13
-9 0 -6 8 -8 17 -6 21 3 3 -6 7 -20 7 -14 0 -23 -4 -20 -8 3 -4 -2 -13 -9 -20
-15 -12 -10 -22 36 -71 9 -9 14 -20 10 -23 -3 -3 0 -6 7 -6 7 0 10 -4 7 -9 -9
-14 5 -42 17 -34 6 3 7 1 3 -6 -8 -13 24 -101 37 -101 5 0 6 -4 3 -8 -3 -5 2
-21 10 -36 30 -59 65 -56 -561 -56 l-575 0 0 24 c0 14 5 28 11 32 6 3 9 14 6
24 -3 11 1 21 9 24 8 3 14 11 14 18 0 10 -2 10 -9 0 -7 -11 -9 -10 -14 3 -4 9
-3 14 2 11 13 -9 38 17 45 46 4 17 1 28 -7 31 -7 3 -5 6 5 6 19 1 52 56 43 71
-3 5 0 12 6 16 8 5 9 3 4 -7 -5 -8 8 2 28 21 20 20 55 46 78 58 39 21 53 22
352 24 l312 3 -305 5 -305 5 297 3 c282 2 334 -1 323 -17 -8 -13 97 -53 108
-42 8 8 7 11 -4 11 -10 1 -9 3 4 11 9 5 22 7 27 4 6 -3 10 -2 10 2 0 9 -103
73 -117 73 -4 0 -2 -4 6 -9 11 -7 9 -10 -8 -16 -13 -4 -25 -4 -28 -1 -4 3 1 6
10 6 11 0 14 5 10 16 -5 13 -18 15 -77 10 -98 -7 -535 -7 -567 0 -19 4 -32 0
-45 -14z m663 2 c-3 -3 -12 -4 -19 -1 -8 3 -5 6 6 6 11 1 17 -2 13 -5z m83
-34 c0 -5 3 -9 8 -9 4 1 14 1 22 0 11 -1 10 -4 -4 -13 -15 -8 -21 -8 -24 0 -2
7 -7 10 -11 8 -4 -3 -8 1 -8 9 0 8 4 15 9 15 4 0 8 -4 8 -10z m-800 -31 c0 -4
-6 -9 -13 -12 -8 -3 -14 0 -14 7 0 7 6 13 14 13 7 0 13 -4 13 -8z m786 -5 c18
-14 18 -14 -6 -3 -31 14 -36 19 -24 19 6 0 19 -7 30 -16z m-829 -8 c0 -8 -6
-12 -15 -8 -9 3 -13 1 -9 -5 3 -5 0 -10 -8 -10 -13 0 -12 4 2 19 19 22 30 23
30 4z m910 -31 c0 -8 -4 -12 -9 -9 -5 3 -6 10 -3 15 9 13 12 11 12 -6z m-907
0 c0 -2 -10 -9 -22 -15 -22 -11 -22 -10 -4 4 21 17 26 19 26 11z m950 -30 c0
6 9 -3 20 -20 11 -16 20 -34 20 -40 -1 -5 -8 2 -16 18 -16 29 -30 37 -20 11 3
-8 2 -12 -4 -9 -6 3 -10 13 -10 21 0 8 -4 12 -10 9 -6 -3 -7 1 -3 10 5 13 7
14 14 3 5 -7 9 -8 9 -3z m-1040 -100 c0 -8 -2 -15 -4 -15 -2 0 -6 7 -10 15 -3
8 -1 15 4 15 6 0 10 -7 10 -15z m7 -57 c-3 -8 -6 -5 -6 6 -1 11 2 17 5 13 3
-3 4 -12 1 -19z m-83 -124 c3 -8 2 -12 -4 -9 -6 3 -10 10 -10 16 0 14 7 11 14
-7z m-124 -8 c-5 -5 -19 -10 -31 -11 -19 -2 -20 0 -6 10 20 15 52 16 37 1z
m1454 6 c2 -4 -4 -8 -14 -8 -10 0 -16 4 -14 8 3 4 9 8 14 8 5 0 11 -4 14 -8z
m-133 -53 c-5 -13 -10 -19 -10 -12 -1 15 10 45 15 40 3 -2 0 -15 -5 -28z
m-304 4 c-152 -2 -402 -2 -555 0 -152 1 -27 2 278 2 305 0 430 -1 277 -2z
m403 -122 c0 -6 -4 -13 -10 -16 -5 -3 -10 1 -10 9 0 9 5 16 10 16 6 0 10 -4
10 -9z m-1290 -21 c-6 -11 -13 -20 -16 -20 -2 0 0 9 6 20 6 11 13 20 16 20 2
0 0 -9 -6 -20z m155 9 c3 -4 2 -10 -4 -14 -6 -3 -11 -1 -11 4 0 6 -10 11 -22
11 -17 0 -10 -8 29 -30 52 -30 54 -33 68 -103 2 -9 -1 -15 -6 -11 -5 3 -9 -6
-9 -20 0 -14 -5 -28 -12 -32 -6 -4 -8 -3 -5 3 3 5 0 10 -7 10 -8 0 -12 -6 -9
-14 3 -7 0 -13 -6 -13 -6 0 -11 5 -11 10 0 6 -5 10 -11 10 -5 0 -7 -4 -4 -10
3 -5 3 -10 -2 -11 -4 0 -25 -1 -45 -3 -21 -2 -35 1 -31 7 3 5 18 7 34 5 16 -3
29 0 29 5 0 5 -22 7 -49 5 -27 -1 -47 0 -45 3 2 4 -7 14 -21 23 -15 10 -27 30
-31 53 -4 21 -12 45 -18 53 -10 13 -9 13 7 1 15 -12 17 -11 17 2 0 9 11 24 25
35 13 11 23 21 21 23 -3 2 24 4 59 4 35 0 66 -3 70 -6z m875 -14 c0 -2 -5 -7
-12 -11 -7 -5 -8 -3 -3 6 6 9 4 12 -7 8 -8 -4 -15 0 -15 7 0 10 5 11 19 4 10
-5 18 -12 18 -14z m41 2 c-8 -8 -14 -7 -23 2 -11 10 -9 11 6 5 15 -6 17 -4 11
6 -6 9 -4 11 4 5 9 -5 10 -10 2 -18z m132 7 c-2 -6 1 -15 8 -20 8 -5 10 -3 4
6 -5 9 -4 11 3 6 13 -8 11 -161 -2 -173 -5 -5 -6 0 -3 10 5 13 3 17 -5 14 -7
-2 -12 -8 -12 -13 1 -5 -7 -18 -17 -28 -18 -18 -19 -18 -19 -2 0 16 -7 18 -59
14 -49 -3 -61 -1 -70 14 -6 10 -15 17 -19 14 -5 -3 -9 15 -11 40 -1 32 4 52
19 71 11 14 20 23 20 19 0 -3 19 3 42 15 28 14 52 19 75 16 18 -3 31 -2 29 2
-3 4 1 8 8 8 8 0 12 -6 9 -13z m-1240 -19 c-3 -9 -8 -14 -10 -11 -3 3 -2 9 2
15 9 16 15 13 8 -4z m217 5 c0 -5 -5 -10 -11 -10 -5 0 -7 5 -4 10 3 6 8 10 11
10 2 0 4 -4 4 -10z m1067 -112 c-2 -13 -4 -3 -4 22 0 25 2 35 4 23 2 -13 2
-33 0 -45z m-1263 -34 c18 -7 22 -34 5 -34 -5 0 -8 4 -4 9 3 6 -3 14 -12 20
-20 12 -13 14 11 5z m243 -16 c-3 -8 -6 -5 -6 6 -1 11 2 17 5 13 3 -3 4 -12 1
-19z m906 -25 c-13 -2 -35 -2 -50 0 -16 2 -5 4 22 4 28 0 40 -2 28 -4z m-1108
-13 c3 -6 -1 -7 -9 -4 -18 7 -21 14 -7 14 6 0 13 -4 16 -10z m1062 -272 c-3
-8 -6 -5 -6 6 -1 11 2 17 5 13 3 -3 4 -12 1 -19z m-1142 -48 c3 -5 1 -10 -4
-10 -6 0 -11 5 -11 10 0 6 2 10 4 10 3 0 8 -4 11 -10z m182 -52 c-3 -8 -6 -5
-6 6 -1 11 2 17 5 13 3 -3 4 -12 1 -19z m960 -40 c-3 -7 -5 -2 -5 12 0 14 2
19 5 13 2 -7 2 -19 0 -25z m240 10 c-3 -8 -6 -5 -6 6 -1 11 2 17 5 13 3 -3 4
-12 1 -19z m-192 -26 c-3 -3 -11 0 -18 7 -9 10 -8 11 6 5 10 -3 15 -9 12 -12z
m-1139 -20 c-21 -2 -42 0 -47 5 -4 4 13 6 39 3 l47 -5 -39 -3z m1211 2 c-3 -3
-12 -4 -19 -1 -8 3 -5 6 6 6 11 1 17 -2 13 -5z"/>
<path d="M991 1604 c0 -11 3 -14 6 -6 3 7 2 16 -1 19 -3 4 -6 -2 -5 -13z"/>
<path d="M1020 1530 c0 -5 5 -10 11 -10 5 0 7 5 4 10 -3 6 -8 10 -11 10 -2 0
-4 -4 -4 -10z"/>
<path d="M1490 1215 c22 -24 30 -29 30 -22 0 8 -38 47 -45 47 -5 0 2 -11 15
-25z"/>
<path d="M1710 1016 c0 -2 7 -9 15 -16 9 -7 15 -8 15 -2 0 5 -7 12 -15 16 -8
3 -15 4 -15 2z"/>
<path d="M3130 760 c0 -5 5 -10 11 -10 5 0 7 5 4 10 -3 6 -8 10 -11 10 -2 0
-4 -4 -4 -10z"/>
</g>
</svg>
